<?xml version="1.0" encoding="UTF-8" standalone="no"?>
<!-- Generator: Adobe Illustrator 18.1.1, SVG Export Plug-In . SVG Version: 6.00 Build 0)  -->

<svg
   xmlns:dc="http://purl.org/dc/elements/1.1/"
   xmlns:cc="http://creativecommons.org/ns#"
   xmlns:rdf="http://www.w3.org/1999/02/22-rdf-syntax-ns#"
   xmlns:svg="http://www.w3.org/2000/svg"
   xmlns="http://www.w3.org/2000/svg"
   xmlns:sodipodi="http://sodipodi.sourceforge.net/DTD/sodipodi-0.dtd"
   xmlns:inkscape="http://www.inkscape.org/namespaces/inkscape"
   version="1.1"
   id="art"
   x="0px"
   y="0px"
   viewBox="0 0 461.9 96.1"
   enable-background="new 0 0 461.9 96.1"
   xml:space="preserve"
   inkscape:version="0.91pre4 r13712"
   sodipodi:docname="dame-Logo.svg"><metadata
     id="metadata4145"><rdf:RDF><cc:Work
         rdf:about=""><dc:format>image/svg+xml</dc:format><dc:type
           rdf:resource="http://purl.org/dc/dcmitype/StillImage" /><dc:title></dc:title></cc:Work></rdf:RDF></metadata><defs
     id="defs4143" /><sodipodi:namedview
     pagecolor="#ffffff"
     bordercolor="#666666"
     borderopacity="1"
     objecttolerance="10"
     gridtolerance="10"
     guidetolerance="10"
     inkscape:pageopacity="0"
     inkscape:pageshadow="2"
     inkscape:window-width="1280"
     inkscape:window-height="657"
     id="namedview4141"
     showgrid="false"
     inkscape:zoom="1.7731111"
     inkscape:cx="317.23901"
     inkscape:cy="48.049999"
     inkscape:window-x="-8"
     inkscape:window-y="-8"
     inkscape:window-maximized="1"
     inkscape:current-layer="art" /><g
     style="display:inline"
     id="g3470"
     transform="matrix(0.62563384,0,0,0.6124011,-152.51946,-257.29398)"><path
       inkscape:connector-curvature="0"
       id="path3470-1-2"
       d="m 371.73186,554.64569 c -4.675,-0.30547 -32.21826,-0.37767 -61.20725,-0.16044 -28.98899,0.21722 -54.28101,0.0997 -56.2045,-0.26114 -2.51451,-0.47172 -3.33947,-1.06726 -2.93576,-2.11931 0.41714,-1.08706 -0.22207,-1.46322 -2.48648,-1.46322 -1.67639,0 -3.30105,-0.40948 -3.61036,-0.90995 -0.63387,-1.02562 4.09283,-1.4069 44.44435,-3.5851 15.675,-0.84614 36.54219,-2.01153 46.37154,-2.58975 21.92112,-1.28953 26.47305,-1.07061 28.9353,1.39164 1.27843,1.27843 2.56694,1.65906 4.03561,1.19212 6.10609,-1.94129 7.60124,-1.75559 11.18268,1.38896 4.14198,3.63671 4.87047,3.75307 7.59649,1.2134 1.1209,-1.04427 3.01458,-2.13824 4.20819,-2.43104 1.1936,-0.2928 3.97019,-0.98095 6.17019,-1.52921 2.2,-0.54827 10.075,-1.30712 17.5,-1.68633 14.22129,-0.72632 18.38719,-1.44987 8.41667,-1.46185 -3.25417,-0.004 -9.02503,-0.3006 -12.82415,-0.65931 -4.06924,-0.38422 -6.67656,-0.27857 -6.34549,0.25711 0.30909,0.50012 -0.63254,0.92832 -2.09252,0.95155 -1.45998,0.0232 -4.22951,0.3803 -6.15451,0.7935 -2.38507,0.51194 -3.01403,0.44303 -1.97445,-0.21633 4.06278,-2.5768 18.52546,-4.39677 29.96998,-3.77139 11.24282,0.61436 26.53215,2.84633 27.73458,4.04876 0.33177,0.33177 -2.05928,0.59633 -5.31344,0.58791 -4.15685,-0.0108 -5.47052,-0.3006 -4.41667,-0.97447 1.00204,-0.64074 -0.32584,-0.75513 -4,-0.34457 -3.025,0.33801 -5.61822,0.70725 -5.76272,0.82052 -0.1445,0.11326 5.0305,0.72265 11.5,1.35418 6.4695,0.63153 16.70307,1.82737 22.74127,2.65742 6.0382,0.83005 15.4882,2.00475 21,2.61045 19.423,2.13442 18.65181,1.97661 18.31023,3.7467 -0.29054,1.50562 -5.65684,1.6476 -63.30312,1.67484 -34.64211,0.0164 -66.81066,-0.22018 -71.48566,-0.52565 z m -13.29303,-6.24419 c 1.46692,-0.11334 2.51944,-2.50195 1.40575,-3.19025 -0.43996,-0.27191 -4.69531,-0.21949 -9.45632,0.1165 -9.03683,0.63774 -12.00489,2.31383 -4.09738,2.31383 3.19502,0 4.34525,0.34588 3.84452,1.15607 -0.5212,0.84332 0.34206,0.95873 3.19098,0.42659 2.14802,-0.40121 4.44862,-0.77145 5.11245,-0.82274 z m 60.04303,-8.44925 c -0.9625,-0.25152 -2.5375,-0.25152 -3.5,0 -0.9625,0.25153 -0.175,0.45733 1.75,0.45733 1.925,0 2.7125,-0.2058 1.75,-0.45733 z m -158.25,5.2162 c 1.65,-0.79016 3.9,-1.45846 5,-1.48509 3.16025,-0.0765 20.7121,-3.70004 23.74957,-4.903 1.51226,-0.59893 4.16973,-0.80492 5.90549,-0.45777 2.10223,0.42045 2.93759,0.27791 2.50199,-0.42691 -0.41694,-0.6746 1.61069,-1.34047 5.5945,-1.83722 3.43665,-0.42852 5.48857,-0.9503 4.55983,-1.15951 -1.40465,-0.31641 -17.56937,2.1817 -28.0604,4.33648 -2.18091,0.44794 -2.6283,0.25003 -2.16486,-0.95768 0.32129,-0.83727 1.10835,-1.70835 1.74902,-1.93572 0.64067,-0.22737 0.37147,-0.29358 -0.59823,-0.14712 -0.9697,0.14645 -2.2266,-0.59981 -2.79312,-1.65836 -1.21219,-2.265 -0.8484,-2.46208 7.05621,-3.82276 5.24288,-0.9025 5.12601,-0.92768 -2.5,-0.53875 -7.20999,0.36773 -7.605,0.2983 -4,-0.70303 2.43595,-0.67662 14.75287,-1.15394 31.5,-1.22074 29.26491,-0.11673 34.47295,0.52997 44.19002,5.48725 2.09549,1.06904 3.80998,1.71714 3.80998,1.44023 0,-1.09472 -9.8578,-5.3617 -16,-6.92565 -7.30963,-1.8612 -41.47263,-3.34867 -37,-1.611 2.10003,0.8159 1.86005,0.89531 -1.5,0.49639 -2.2,-0.26119 -6.6625,-0.47985 -9.91667,-0.4859 -3.25416,-0.006 -5.70939,-0.21829 -5.45605,-0.47162 1.10624,-1.10624 42.61257,-5.59019 46.17503,-4.98832 5.42052,0.9158 18.47135,7.64115 23.22253,11.96704 2.18634,1.99063 3.34313,3.29388 2.57065,2.8961 -0.92212,-0.47483 -1.15944,-0.3267 -0.69098,0.43128 0.39244,0.63498 1.36197,1.15451 2.15451,1.15451 0.79254,0 1.44098,0.45 1.44098,1 0,1.36534 -1.13558,1.25912 -5.34576,-0.5 -1.9745,-0.825 -4.61696,-1.45181 -5.87212,-1.39291 -1.29002,0.0605 -0.43453,0.52085 1.96788,1.05885 2.3375,0.52347 4.25,1.33328 4.25,1.79958 0,0.46631 -4.1625,1.10541 -9.25,1.42023 -5.0875,0.31482 -23.65,1.54973 -41.25,2.74425 -17.6,1.19452 -35.6,2.32073 -40,2.50269 -7.56553,0.31288 -7.83707,0.25283 -5,-1.10582 z m 53.76903,-9.18281 c -0.67703,-0.27392 -2.02703,-0.29059 -3,-0.0371 -0.97297,0.25354 -0.41903,0.47766 1.23097,0.49804 1.65,0.0204 2.44606,-0.18706 1.76903,-0.46099 z m 30.23097,-0.34406 c -1.65,-0.41985 -8.625,-0.72474 -15.5,-0.67752 l -12.5,0.0858 13,0.59167 c 19.48061,0.88663 18.4844,0.88663 15,0 z m -29.23097,-1.65594 c -0.67703,-0.27392 -2.02703,-0.29059 -3,-0.0371 -0.97297,0.25354 -0.41903,0.47766 1.23097,0.49804 1.65,0.0204 2.44606,-0.18706 1.76903,-0.46099 z m 20.52016,-1.08188 c -3.14095,-0.19781 -8.54095,-0.19942 -12,-0.004 -3.45906,0.19583 -0.88919,0.35767 5.71081,0.35965 6.6,0.002 9.43013,-0.15825 6.28919,-0.35606 z m -42.53919,-3.92446 c -0.6875,-0.27741 -1.8125,-0.27741 -2.5,0 -0.6875,0.27741 -0.125,0.50439 1.25,0.50439 1.375,0 1.9375,-0.22698 1.25,-0.50439 z m 75.75,14.16228 c 1.375,-0.78602 3.625,-1.42532 5,-1.42067 1.98151,0.007 1.67042,0.30732 -1.5,1.44951 -5.083,1.83121 -6.73008,1.81764 -3.5,-0.0288 z m 85,0.32942 c 0,-0.96685 3.23198,-0.9045 7.5,0.14468 2.4385,0.59944 2.01737,0.73254 -2.25,0.71111 -2.8875,-0.0145 -5.25,-0.39961 -5.25,-0.85579 z m -78.22675,-6.48768 c -1.06635,-1.95903 -0.85386,-20.07072 0.26427,-22.52473 1.25001,-2.74348 3.90131,-3.1301 5.00322,-0.72958 0.35662,0.77691 1.16835,2.41896 1.80383,3.649 1.44746,2.80168 1.46333,3.57189 0.0557,2.70191 -0.72794,-0.44989 -0.69421,0.0781 0.0998,1.56166 0.65975,1.23274 0.7558,1.96711 0.21346,1.63192 -0.54234,-0.33518 -1.22707,0.17301 -1.52162,1.12933 -1.43084,4.6455 -5.51378,13.32417 -5.91859,12.58049 z m -6.71033,-6.37413 c -1.72398,-3.39257 -5.36413,-8.92385 -8.08921,-12.29174 -4.45371,-5.50426 -4.79917,-6.27777 -3.4165,-7.64966 1.38021,-1.36944 1.73317,-1.26941 3.43615,0.97379 3.8443,5.06379 12.61123,23.72874 11.61386,24.72612 -0.22539,0.22538 -1.82033,-2.36594 -3.5443,-5.75851 z m 21.37821,4.58756 c 1.06762,-0.85535 2.38012,-1.55517 2.91667,-1.55517 1.27054,0 0.70323,0.4619 -2.3578,1.91971 -2.35727,1.12265 -2.38918,1.10183 -0.55887,-0.36454 z M 379.23583,534.648 c -1.73122,-2.80117 13.04263,-19.3206 25.29271,-28.28113 10.94797,-8.00808 26.32301,-18.55585 32.20332,-22.09251 6.62785,-3.98627 2.51561,-0.8767 -16.5,12.47686 -19.20508,13.48662 -29.26321,22.13728 -35.92709,30.89971 -5.88405,7.73702 -5.88152,8.95223 0.005,2.22347 2.51765,-2.87805 5.21816,-5.23282 6.00114,-5.23282 0.79485,0 -0.28984,1.65623 -2.45594,3.75 -7.18079,6.94101 -7.88137,7.44957 -8.61878,6.25642 z m 11.49603,-4.01194 c 5.38333,-3.58523 17.0056,-8.54884 22.32981,-9.53654 3.69836,-0.68608 8.67019,0.82727 8.67019,2.63908 0,0.41749 -2.5875,1.05207 -5.75,1.41019 -7.58521,0.85895 -19.43188,4.03477 -24.28337,6.50981 -5.67654,2.89596 -6.13004,2.41624 -0.96663,-1.02254 z m 6.69082,1.51649 c 1.75495,-0.80762 5.12995,-1.70243 7.5,-1.98845 l 4.30918,-0.52005 -5,1.32504 c -2.75,0.72877 -6.125,1.62357 -7.5,1.98845 -1.72925,0.45889 -1.51628,0.21072 0.69082,-0.80499 z m -37.76835,-4.78112 c -3.06764,-2.87642 -7.23014,-6.62936 -9.25,-8.33988 -2.01986,-1.71051 -3.67247,-3.63457 -3.67247,-4.27568 0,-1.92944 5.06441,1.26522 9.59964,6.0555 4.03477,4.2617 9.98999,11.84946 9.26905,11.81006 -0.20278,-0.0111 -2.87858,-2.37359 -5.94622,-5.25 z m 11.0476,-1.94729 c -1.26397,-3.45541 -3.16078,-8.0236 -4.21512,-10.15154 -1.44394,-2.91423 -1.63271,-4.14808 -0.76499,-5 2.08611,-2.04811 4.64858,2.80565 6.33769,12.00468 0.8848,4.81869 1.45839,8.9116 1.27464,9.09534 -0.18375,0.18375 -1.36824,-2.49307 -2.63222,-5.94848 z m 40.77993,3.51171 c 1.2375,-0.23836 3.2625,-0.23836 4.5,0 1.2375,0.23835 0.225,0.43337 -2.25,0.43337 -2.475,0 -3.4875,-0.19502 -2.25,-0.43337 z m -48.25,-20.29427 c 0.33992,-0.55 0.81648,-1 1.05902,-1 0.24254,0 0.44098,0.45 0.44098,1 0,0.55 -0.47656,1 -1.05902,1 -0.58246,0 -0.7809,-0.45 -0.44098,-1 z"
       style="display:inline;fill:#000000" /><path
       inkscape:connector-curvature="0"
       id="path3404-3-5"
       d="m 279.78284,480.77815 46.30682,21.02273 22.44318,14.48863 16.76137,15.625 -10.79546,-13.63636 -21.875,-14.77273 -28.40909,-15.05682 -21.59091,-10.51136 z"
       style="display:inline;fill:none;fill-rule:evenodd;stroke:#000000;stroke-width:1px;stroke-linecap:butt;stroke-linejoin:miter;stroke-opacity:1" /><path
       inkscape:connector-curvature="0"
       id="path3406-9-9"
       d="m 357.62375,514.58497 -38.63636,-24.71591 -36.93182,-12.5 17.04545,8.80682 33.80682,16.76136 21.875,15.90909 10.22728,12.78409 4.82954,7.10227 2.84091,1.42046 -2.84091,-9.09091 z"
       style="display:inline;fill:none;fill-rule:evenodd;stroke:#000000;stroke-width:1px;stroke-linecap:butt;stroke-linejoin:miter;stroke-opacity:1" /><path
       inkscape:connector-curvature="0"
       id="path3408-4-4"
       d="m 372.96466,539.86906 -2.27273,-8.80682 -5.68181,-10.51136 -5.96591,-10.22728 -13.63637,-17.89772 -40.05682,-39.20455 3.97728,-0.56818 33.52272,27.84091 18.46591,20.73863 5.68182,8.80682 3.97727,7.38637 2.27273,13.06818 0.56818,8.52272 z"
       style="display:inline;fill:none;fill-rule:evenodd;stroke:#000000;stroke-width:1px;stroke-linecap:butt;stroke-linejoin:miter;stroke-opacity:1" /><path
       inkscape:connector-curvature="0"
       id="path3410-4-4"
       d="m 366.14648,542.14178 -14.20455,-10.22727 -18.75,-10.79545 -35.22727,-4.26137 -28.125,-1.98863 -10.51136,-0.56818 8.23863,-6.5341 74.71591,5.96591 1.98864,0.28409 13.63636,10.79546 6.25,5.68182 4.54546,7.38636 4.54545,3.40909 -5.39773,3.125 z"
       style="display:inline;fill:none;fill-rule:evenodd;stroke:#000000;stroke-width:1px;stroke-linecap:butt;stroke-linejoin:miter;stroke-opacity:1" /><path
       inkscape:connector-curvature="0"
       id="path3412-2-9"
       d="m 374.10102,541.5736 -3.125,-24.43182 -3.125,-21.875 -14.77272,-63.63636 0.28409,-1.98864 1.98863,1.98864 18.18182,71.02273 1.42046,39.77273 z"
       style="display:inline;fill:none;fill-rule:evenodd;stroke:#000000;stroke-width:1px;stroke-linecap:butt;stroke-linejoin:miter;stroke-opacity:1" /><path
       inkscape:connector-curvature="0"
       id="path3414-2-2"
       d="m 377.51012,513.16451 5.68181,-10.79545 15.34091,-12.78409 44.88637,-29.26137 16.19318,8.23864 4.54545,3.125 -48.01136,31.81818 -25.85227,21.02273 -12.78409,12.21591 -1.98864,6.25 z"
       style="display:inline;fill:none;fill-rule:evenodd;stroke:#000000;stroke-width:1px;stroke-linecap:butt;stroke-linejoin:miter;stroke-opacity:1" /><path
       inkscape:connector-curvature="0"
       id="path3416-9-4"
       d="m 380.06693,516.00542 26.42046,-25 29.82954,-19.88636 -28.97727,20.73863 -25.85227,24.71591 z"
       style="display:inline;fill:none;fill-rule:evenodd;stroke:#000000;stroke-width:1px;stroke-linecap:butt;stroke-linejoin:miter;stroke-opacity:1" /><path
       inkscape:connector-curvature="0"
       id="path3418-2-0"
       d="m 407.62375,498.10769 11.36364,-10.51136 18.46591,-12.5 z"
       style="display:inline;fill:none;fill-rule:evenodd;stroke:#000000;stroke-width:1px;stroke-linecap:butt;stroke-linejoin:miter;stroke-opacity:1" /><path
       inkscape:connector-curvature="0"
       id="path3420-1-0"
       d="m 378.93057,542.70997 14.77273,-20.17046 20.45454,-17.32954 11.93182,-7.95455 34.09091,-5.11364 26.70455,21.875 -67.04546,10.22728 -25.85227,5.39772 -7.95455,4.82955 z"
       style="display:inline;fill:none;fill-rule:evenodd;stroke:#000000;stroke-width:1px;stroke-linecap:butt;stroke-linejoin:miter;stroke-opacity:1" /><path
       inkscape:connector-curvature="0"
       id="path3422-5-7"
       d="m 384.3283,543.27815 9.94318,-6.81818 10.79545,-3.40909 19.03409,-1.70455 27.55682,3.125 35.22728,5.11364 1.70454,1.70454 -63.63636,-8.23863 -17.89773,0.85227 -13.63636,3.97727 z"
       style="display:inline;fill:none;fill-rule:evenodd;stroke:#000000;stroke-width:1px;stroke-linecap:butt;stroke-linejoin:miter;stroke-opacity:1" /><path
       inkscape:connector-curvature="0"
       id="path3424-6-1"
       d="m 505.91921,552.93724 -42.89773,-35.51136 -54.82955,9.0909 -16.19318,3.97728 -7.95454,4.82954 -4.26137,7.67046 11.07955,6.53409 z"
       style="display:inline;fill:none;fill-rule:evenodd;stroke:#000000;stroke-width:1px;stroke-linecap:butt;stroke-linejoin:miter;stroke-opacity:1" /></g><text
     sodipodi:linespacing="88%"
     id="text6875"
     y="45.299679"
     x="296.48709"
     style="font-style:normal;font-variant:normal;font-weight:bold;font-stretch:normal;font-size:33.74217987px;line-height:87.99999952%;font-family:Gadugi;-inkscape-font-specification:'Gadugi, Bold';text-align:start;letter-spacing:0px;word-spacing:0px;writing-mode:lr-tb;text-anchor:start;display:inline;fill:#000000;fill-opacity:1;stroke:none;stroke-width:1px;stroke-linecap:butt;stroke-linejoin:miter;stroke-opacity:1"
     xml:space="preserve"><tspan
       style="font-style:normal;font-variant:normal;font-weight:bold;font-stretch:normal;font-size:48.20311737px;line-height:87.99999952%;font-family:Gadugi;-inkscape-font-specification:'Gadugi, Bold';text-align:center;letter-spacing:-0.3277812px;word-spacing:-0.05784374px;writing-mode:lr-tb;text-anchor:middle;fill:#000000"
       y="45.299679"
       x="296.31357"
       id="tspan6877"
       sodipodi:role="line"
       dx="0 0 0 0 0"><tspan
         style="letter-spacing:-0.34706244px"
         id="tspan6883"><tspan
   style="letter-spacing:-3.99121785px"
   id="tspan6885"> DAM</tspan>E</tspan></tspan><tspan
       style="font-style:normal;font-variant:normal;font-weight:bold;font-stretch:normal;font-size:33.74217987px;line-height:87.99999952%;font-family:Gadugi;-inkscape-font-specification:'Gadugi, Bold';text-align:center;letter-spacing:-0.3277812px;word-spacing:-0.05784374px;writing-mode:lr-tb;text-anchor:middle;fill:#000000"
       y="77.394035"
       x="296.32321"
       sodipodi:role="line"
       id="tspan6879">Consulting, LLC</tspan></text>
</svg>